<svg width="30" height="30" viewBox="0 0 30 30" fill="none" xmlns="http://www.w3.org/2000/svg">
<path fill-rule="evenodd" clip-rule="evenodd" d="M20.2075 15.895C19.5185 15.895 19.0695 16.344 19.0695 17.003C19.0695 17.662 19.5185 18.111 20.2075 18.111C20.8965 18.111 21.3455 17.662 21.3455 17.003C21.3455 16.344 20.8965 15.895 20.2075 15.895ZM9.51649 15.895C8.82749 15.895 8.37849 16.344 8.37849 17.003C8.37849 17.662 8.82749 18.111 9.51649 18.111C10.2055 18.111 10.6545 17.662 10.6545 17.003C10.6545 16.344 10.2055 15.895 9.51649 15.895ZM11.6425 17.003H18.0815C18.0815 15.805 18.9795 14.907 20.2075 14.907C21.4355 14.907 22.3335 15.805 22.3335 17.003C22.3335 18.201 21.4355 19.099 20.2075 19.099C19.3685 19.099 18.6805 18.68 18.3205 18.021H11.4035C11.0435 18.68 10.3555 19.099 9.51649 19.099C8.28849 19.099 7.39049 18.201 7.39049 17.003C7.39049 15.805 8.28849 14.907 9.51649 14.907C10.7445 14.907 11.6425 15.805 11.6425 17.003ZM5.23449 15.146C5.23449 13.679 5.32449 13.469 6.79149 11.732C8.28849 9.936 9.00749 9.516 10.5945 9.516H14.3975C16.1045 9.516 17.0335 9.816 18.3805 10.744L20.6565 12.451L22.1245 12.811C23.7115 13.17 24.4595 14.098 24.4595 15.625C24.4595 16.374 24.2505 17.033 23.8605 17.572L23.0225 16.973C23.3215 16.524 23.4115 16.194 23.4115 15.625C23.4115 14.577 22.8725 14.008 21.5255 13.679L20.0575 13.32L17.8415 11.643C16.7635 10.834 15.8355 10.535 14.3975 10.535H10.5945C9.36649 10.535 8.91749 10.834 7.54049 12.481C6.40249 13.859 6.28249 14.038 6.28249 15.296V15.925C6.28249 16.374 6.37249 16.644 6.64149 16.913L5.92349 17.572C5.44349 17.153 5.23449 16.644 5.23449 15.925V15.146ZM27.7545 14.847H26.6165C26.6165 7.72 22.2735 3.078 14.8775 3.078C11.2235 3.078 8.04949 4.575 5.80349 6.941C6.73149 6.701 7.65949 6.402 8.61849 6.043L9.42649 6.761C7.86949 7.33 6.64149 7.69 4.84449 7.989L4.15649 7.36C4.30549 5.953 4.63549 4.515 5.20449 2.868L6.01249 3.617C5.56349 4.875 5.29449 5.563 5.11449 6.222C7.54049 3.647 10.9545 2 14.8775 2C22.9325 2 27.7545 7.121 27.7545 14.847ZM24.6395 23.442C22.2435 25.987 18.9795 27.664 15.1765 27.664C6.94149 27.664 2.00049 22.543 2.00049 14.817H3.13749C3.13749 21.944 7.60049 26.586 15.1765 26.586C18.7105 26.586 21.7345 25.059 23.9505 22.723C23.0225 22.962 22.0945 23.262 21.1355 23.621L20.3275 22.902C21.8845 22.334 23.1125 21.974 24.9095 21.675L25.5975 22.304C25.4485 23.711 25.1185 25.148 24.5495 26.796L23.7415 26.047C24.1905 24.789 24.4595 24.1 24.6395 23.442Z" fill="#EFDF00"/>
</svg>
