<svg width="30" height="30" viewBox="0 0 30 30" fill="none" xmlns="http://www.w3.org/2000/svg">
<path fill-rule="evenodd" clip-rule="evenodd" d="M8.22582 16.9355C9.81379 16.9355 11.129 15.4323 11.129 13.5484C11.129 11.6644 9.81379 10.1613 8.22582 10.1613C6.63785 10.1613 5.3226 11.6644 5.3226 13.5484C5.3226 15.4323 6.63785 16.9355 8.22582 16.9355ZM8.22582 17.9032C6.07251 17.9032 4.35485 15.9402 4.35485 13.5484C4.35485 11.1566 6.07251 9.19355 8.22582 9.19355C10.3791 9.19355 12.0968 11.1566 12.0968 13.5484C12.0968 15.9402 10.3791 17.9032 8.22582 17.9032ZM1.4504 27.5945C1.45723 27.6903 1.50697 27.8719 1.6281 28.0503C1.83202 28.3506 2.17434 28.5313 2.75131 28.5313H14.2456L14.3614 28.5454C14.4441 28.5562 14.5448 28.5452 14.6319 28.4974C14.8459 28.3799 15 28.0501 15 27.3502V26.3263C15 23.7636 15 23.7636 15.005 22.9787C14.9956 22.914 14.9531 22.7666 14.8556 22.5632C14.6837 22.2048 14.4122 21.8415 14.0164 21.497C12.8898 20.5165 11.0197 19.8956 8.21661 19.8422C5.32495 19.7871 3.43395 20.372 2.32941 21.3553C1.97662 21.6693 1.73414 22.0004 1.58015 22.327C1.50474 22.4869 1.46607 22.6084 1.45162 22.6753L1.4504 27.5945ZM2.75131 29.499C1.8542 29.499 1.21182 29.1599 0.827474 28.5939C0.595642 28.2525 0.503008 27.9142 0.483887 27.629V22.6328L0.488935 22.5631C0.563909 22.0482 0.902724 21.3296 1.68596 20.6324C2.98817 19.4732 5.11553 18.8152 8.23504 18.8746C11.2516 18.9321 13.3402 19.6256 14.6517 20.767C15.5126 21.5162 15.8829 22.2884 15.9678 22.9094V27.3502C15.9678 28.3743 15.6575 29.0383 15.0976 29.3457C14.8022 29.5079 14.4991 29.541 14.2265 29.5029C14.2204 29.5019 10.3953 29.5006 2.75131 29.499ZM28.9294 7.30098C28.9294 8.45245 27.9949 9.38698 26.8434 9.38698H25.8004V11.473L23.0188 9.38698H18.4995C17.348 9.38698 16.4135 8.45245 16.4135 7.30098V3.12899C16.4135 1.97752 17.348 1.043 18.4995 1.043H26.8434C27.9949 1.043 28.9294 1.97752 28.9294 3.12899V7.30098ZM26.8434 0H18.4995C16.7712 0 15.3705 1.40075 15.3705 3.12899V7.30098C15.3705 9.02923 16.7712 10.43 18.4995 10.43H22.9312L26.8434 13.559V10.43C28.5717 10.43 29.9724 9.02923 29.9724 7.30098V3.12899C29.9724 1.40075 28.5717 0 26.8434 0ZM17.4565 14.602V12.516H16.4135C15.6051 12.516 14.9115 12.0508 14.5653 11.377C14.4255 11.2842 14.3275 11.1319 14.3275 10.9504V3.94044C13.6923 4.51409 13.2845 5.33493 13.2845 6.25798V10.43C13.2845 12.1572 14.6852 13.559 16.4135 13.559V16.688L20.3247 13.559H22.6714V12.516H20.2381L17.4565 14.602Z" fill="#EFDF00"/>
</svg>
