<svg width="30" height="28" viewBox="0 0 30 28" fill="none" xmlns="http://www.w3.org/2000/svg">
<mask id="mask0" mask-type="alpha" maskUnits="userSpaceOnUse" x="1" y="0" width="29" height="26">
<path d="M22.1319 21.2835H20.724C19.9597 20.4261 19.1954 19.4053 18.5518 18.3846L19.5575 17.6905C20.0804 18.4662 20.6838 19.242 21.4078 20.0586C22.4939 18.4254 23.4593 16.9555 24.304 15.4448L25.4303 16.1389C24.3845 17.9354 23.4593 19.4053 22.1319 21.2835ZM21.9307 12.5458C18.4311 12.5458 16.1785 14.8323 16.1785 18.3437C16.1785 21.9368 18.4311 24.2233 21.9307 24.2233C25.3901 24.2233 27.6427 21.9368 27.6427 18.3437C27.6427 14.8323 25.3901 12.5458 21.9307 12.5458ZM17.7071 10.7085C17.6266 9.72854 17.3451 8.83027 16.8624 8.05449L15.5349 9.03442C14.8511 9.60605 14.7304 9.8102 14.8511 10.1777C14.9718 10.5451 15.3338 10.7085 16.0981 10.7085H17.7071ZM14.127 16.6697C14.4086 16.5472 14.7304 16.3839 14.9718 16.2206C15.1327 15.6081 15.374 15.0365 15.6556 14.5057L15.0522 14.0566C14.4891 13.6074 14.127 13.5258 13.7248 13.7707C13.403 14.0157 13.403 14.2199 13.6443 15.0773L14.127 16.6697ZM11.8342 7.932C12.2365 7.932 12.4778 7.64619 12.7192 6.91124L13.2019 5.35969C12.7996 5.27803 12.3571 5.2372 11.9147 5.2372C11.432 5.2372 10.9492 5.27803 10.5068 5.40052L10.9895 6.91124C11.2711 7.72785 11.432 7.932 11.8342 7.932ZM7.3692 14.9957C7.97258 15.7306 8.69663 16.2614 9.54137 16.6289L10.0241 15.0773C10.2654 14.2199 10.2654 14.0157 9.94362 13.7707C9.54137 13.5258 9.17934 13.6074 8.61618 14.0566L7.3692 14.9957ZM10.7481 17.0372C11.1102 17.078 11.4722 17.1188 11.8342 17.1188C12.1962 17.1188 12.5583 17.078 12.9203 17.0372L12.5583 15.8123C12.0756 14.1382 12.156 13.3216 12.9605 12.7908C13.8857 12.1784 14.5695 12.3009 16.0176 13.2808L16.3394 13.4849C16.7015 13.0766 17.1439 12.6683 17.5864 12.3417L17.6669 11.9742H16.4601C14.7707 11.9742 14.127 11.6067 13.6846 10.5043C13.3225 9.56522 13.6443 8.99359 15.1327 7.80951L16.0981 7.03373C15.6154 6.50294 15.0522 6.09464 14.4086 5.80882L14.0064 6.95207C13.4432 8.62612 12.9203 9.15691 11.8342 9.15691C10.7883 9.15691 10.2654 8.62612 9.70227 6.95207L9.30001 5.84965C8.69663 6.13547 8.13348 6.54377 7.65078 7.07457L8.57596 7.80951C10.0643 8.99359 10.3861 9.56522 10.0241 10.5043C9.58159 11.6067 8.93799 11.9742 7.24853 11.9742H6.04177C6.16244 12.6683 6.36357 13.3624 6.68537 13.9341L7.65078 13.2808C9.09889 12.3009 9.78272 12.1784 10.7079 12.7908C11.5124 13.3216 11.5929 14.1382 11.1102 15.8123L10.7481 17.0372ZM6.8865 8.05449C6.4038 8.83027 6.08199 9.72854 6.00154 10.7085H7.61055C8.37483 10.7085 8.73686 10.5451 8.85754 10.1777C8.97821 9.8102 8.85754 9.60605 8.17371 9.03442L6.8865 8.05449ZM11.8342 19.8545C12.8801 19.8545 13.8857 19.6503 14.7706 19.3237C14.7304 18.7112 14.7304 18.2621 14.7304 17.813C13.8455 18.2213 12.8801 18.4254 11.8342 18.4254C7.89213 18.4254 4.67411 15.159 4.67411 11.1576C4.67411 7.1154 7.8519 3.84897 11.8342 3.84897C15.8567 3.84897 19.0345 7.07457 19.0345 11.1576V11.6067C19.4368 11.4434 19.9195 11.3209 20.4022 11.2393V11.1576C20.4022 6.33962 16.5808 2.4199 11.8342 2.4199C7.08762 2.4199 3.26622 6.33962 3.26622 11.1576C3.26622 15.9756 7.08762 19.8545 11.8342 19.8545ZM29.0908 18.3437C29.0908 22.7126 26.2348 25.6524 21.9307 25.6524C18.5116 25.6524 15.9774 23.7742 15.0925 20.8344C14.0466 21.161 12.9605 21.3652 11.8342 21.3652C6.32334 21.3652 1.81812 16.7922 1.81812 11.1576C1.81812 5.48218 6.32334 0.90918 11.8744 0.90918C17.3853 0.90918 21.8905 5.48218 21.8905 11.1168C26.2348 11.1168 29.0908 13.9749 29.0908 18.3437Z" fill="white"/>
</mask>
<g mask="url(#mask0)">
<path d="M22.1319 21.2835H20.724C19.9597 20.4261 19.1954 19.4053 18.5518 18.3846L19.5575 17.6905C20.0804 18.4662 20.6838 19.242 21.4078 20.0586C22.4939 18.4254 23.4593 16.9555 24.304 15.4448L25.4303 16.1389C24.3845 17.9354 23.4593 19.4053 22.1319 21.2835ZM21.9307 12.5458C18.4311 12.5458 16.1785 14.8323 16.1785 18.3437C16.1785 21.9368 18.4311 24.2233 21.9307 24.2233C25.3901 24.2233 27.6427 21.9368 27.6427 18.3437C27.6427 14.8323 25.3901 12.5458 21.9307 12.5458ZM17.7071 10.7085C17.6266 9.72854 17.3451 8.83027 16.8624 8.05449L15.5349 9.03442C14.8511 9.60605 14.7304 9.8102 14.8511 10.1777C14.9718 10.5451 15.3338 10.7085 16.0981 10.7085H17.7071ZM14.127 16.6697C14.4086 16.5472 14.7304 16.3839 14.9718 16.2206C15.1327 15.6081 15.374 15.0365 15.6556 14.5057L15.0522 14.0566C14.4891 13.6074 14.127 13.5258 13.7248 13.7707C13.403 14.0157 13.403 14.2199 13.6443 15.0773L14.127 16.6697ZM11.8342 7.932C12.2365 7.932 12.4778 7.64619 12.7192 6.91124L13.2019 5.35969C12.7996 5.27803 12.3571 5.2372 11.9147 5.2372C11.432 5.2372 10.9492 5.27803 10.5068 5.40052L10.9895 6.91124C11.2711 7.72785 11.432 7.932 11.8342 7.932ZM7.3692 14.9957C7.97258 15.7306 8.69663 16.2614 9.54137 16.6289L10.0241 15.0773C10.2654 14.2199 10.2654 14.0157 9.94362 13.7707C9.54137 13.5258 9.17934 13.6074 8.61618 14.0566L7.3692 14.9957ZM10.7481 17.0372C11.1102 17.078 11.4722 17.1188 11.8342 17.1188C12.1962 17.1188 12.5583 17.078 12.9203 17.0372L12.5583 15.8123C12.0756 14.1382 12.156 13.3216 12.9605 12.7908C13.8857 12.1784 14.5695 12.3009 16.0176 13.2808L16.3394 13.4849C16.7015 13.0766 17.1439 12.6683 17.5864 12.3417L17.6669 11.9742H16.4601C14.7707 11.9742 14.127 11.6067 13.6846 10.5043C13.3225 9.56522 13.6443 8.99359 15.1327 7.80951L16.0981 7.03373C15.6154 6.50294 15.0522 6.09464 14.4086 5.80882L14.0064 6.95207C13.4432 8.62612 12.9203 9.15691 11.8342 9.15691C10.7883 9.15691 10.2654 8.62612 9.70227 6.95207L9.30001 5.84965C8.69663 6.13547 8.13348 6.54377 7.65078 7.07457L8.57596 7.80951C10.0643 8.99359 10.3861 9.56522 10.0241 10.5043C9.58159 11.6067 8.93799 11.9742 7.24853 11.9742H6.04177C6.16244 12.6683 6.36357 13.3624 6.68537 13.9341L7.65078 13.2808C9.09889 12.3009 9.78272 12.1784 10.7079 12.7908C11.5124 13.3216 11.5929 14.1382 11.1102 15.8123L10.7481 17.0372ZM6.8865 8.05449C6.4038 8.83027 6.08199 9.72854 6.00154 10.7085H7.61055C8.37483 10.7085 8.73686 10.5451 8.85754 10.1777C8.97821 9.8102 8.85754 9.60605 8.17371 9.03442L6.8865 8.05449ZM11.8342 19.8545C12.8801 19.8545 13.8857 19.6503 14.7706 19.3237C14.7304 18.7112 14.7304 18.2621 14.7304 17.813C13.8455 18.2213 12.8801 18.4254 11.8342 18.4254C7.89213 18.4254 4.67411 15.159 4.67411 11.1576C4.67411 7.1154 7.8519 3.84897 11.8342 3.84897C15.8567 3.84897 19.0345 7.07457 19.0345 11.1576V11.6067C19.4368 11.4434 19.9195 11.3209 20.4022 11.2393V11.1576C20.4022 6.33962 16.5808 2.4199 11.8342 2.4199C7.08762 2.4199 3.26622 6.33962 3.26622 11.1576C3.26622 15.9756 7.08762 19.8545 11.8342 19.8545ZM29.0908 18.3437C29.0908 22.7126 26.2348 25.6524 21.9307 25.6524C18.5116 25.6524 15.9774 23.7742 15.0925 20.8344C14.0466 21.161 12.9605 21.3652 11.8342 21.3652C6.32334 21.3652 1.81812 16.7922 1.81812 11.1576C1.81812 5.48218 6.32334 0.90918 11.8744 0.90918C17.3853 0.90918 21.8905 5.48218 21.8905 11.1168C26.2348 11.1168 29.0908 13.9749 29.0908 18.3437Z" fill="#EFDF00"/>
</g>
</svg>
