<svg width="30" height="30" viewBox="0 0 30 30" fill="none" xmlns="http://www.w3.org/2000/svg">
<mask id="mask0" mask-type="alpha" maskUnits="userSpaceOnUse" x="1" y="1" width="28" height="28">
<path d="M17.1176 24.6471C20.8824 23.9804 23.5882 21.4314 24.451 17.6275H19.9412C19.3137 18.6863 18.2941 19.5882 17.1176 20.1373V24.6471ZM26.0588 16.2941C25.5098 21.9804 21.4314 25.902 15.7059 26.2157V19.1569C17.1961 18.8824 18.6078 17.7059 19.0392 16.2941H26.0588ZM12.9216 24.6471V20.1373C11.7059 19.6275 10.6863 18.7255 10.0588 17.6275H5.5098C6.37255 21.3922 9.07843 23.9804 12.9216 24.6471ZM20.1373 13.6275H24.6471C24.098 8.45098 20.3333 5.15686 15 5.15686C9.62745 5.15686 5.82353 8.45098 5.27451 13.6275H9.86275C10.451 12.0588 11.9412 11.4314 15 11.4314C18.0588 11.4314 19.549 12.0588 20.1373 13.6275ZM14.3333 26.2157C8.52941 25.9412 4.41176 22.0588 3.86275 16.2941H10.9608C11.3922 17.7059 12.8039 18.8824 14.3333 19.1569V26.2157ZM15 12.7647C11.9804 12.7647 11.1176 13.2353 10.8824 14.9608H3.78431C3.78431 8.37255 8.37255 3.78431 15 3.78431C21.549 3.78431 26.1373 8.37255 26.1373 14.9608H19.1176C18.8824 13.2353 18.0196 12.7647 15 12.7647ZM15 27.5882C22.5686 27.5882 27.549 22.5686 27.549 14.9608C27.549 7.39216 22.5686 2.41176 15 2.41176C7.43137 2.41176 2.45098 7.39216 2.45098 14.9608C2.45098 22.6078 7.43137 27.5882 15 27.5882ZM1 14.9608C1 6.56863 6.60784 1 15 1C23.4706 1 29 6.52941 29 14.9608C29 23.4314 23.4314 29 15 29C6.56863 29 1 23.3922 1 14.9608Z" fill="white"/>
</mask>
<g mask="url(#mask0)">
<path d="M17.1176 24.6471C20.8824 23.9804 23.5882 21.4314 24.451 17.6275H19.9412C19.3137 18.6863 18.2941 19.5882 17.1176 20.1373V24.6471ZM26.0588 16.2941C25.5098 21.9804 21.4314 25.902 15.7059 26.2157V19.1569C17.1961 18.8824 18.6078 17.7059 19.0392 16.2941H26.0588ZM12.9216 24.6471V20.1373C11.7059 19.6275 10.6863 18.7255 10.0588 17.6275H5.5098C6.37255 21.3922 9.07843 23.9804 12.9216 24.6471ZM20.1373 13.6275H24.6471C24.098 8.45098 20.3333 5.15686 15 5.15686C9.62745 5.15686 5.82353 8.45098 5.27451 13.6275H9.86275C10.451 12.0588 11.9412 11.4314 15 11.4314C18.0588 11.4314 19.549 12.0588 20.1373 13.6275ZM14.3333 26.2157C8.52941 25.9412 4.41176 22.0588 3.86275 16.2941H10.9608C11.3922 17.7059 12.8039 18.8824 14.3333 19.1569V26.2157ZM15 12.7647C11.9804 12.7647 11.1176 13.2353 10.8824 14.9608H3.78431C3.78431 8.37255 8.37255 3.78431 15 3.78431C21.549 3.78431 26.1373 8.37255 26.1373 14.9608H19.1176C18.8824 13.2353 18.0196 12.7647 15 12.7647ZM15 27.5882C22.5686 27.5882 27.549 22.5686 27.549 14.9608C27.549 7.39216 22.5686 2.41176 15 2.41176C7.43137 2.41176 2.45098 7.39216 2.45098 14.9608C2.45098 22.6078 7.43137 27.5882 15 27.5882ZM1 14.9608C1 6.56863 6.60784 1 15 1C23.4706 1 29 6.52941 29 14.9608C29 23.4314 23.4314 29 15 29C6.56863 29 1 23.3922 1 14.9608Z" fill="#EFDF00"/>
</g>
</svg>
