<?xml version="1.0" encoding="UTF-8"?>
<svg xmlns="http://www.w3.org/2000/svg" xmlns:xlink="http://www.w3.org/1999/xlink" width="150pt" height="150pt" viewBox="0 0 150 150" version="1.1">
<g id="surface1">
<path style=" stroke:none;fill-rule:nonzero;fill:rgb(98.039216%,67.058824%,38.431373%);fill-opacity:1;" d="M 150.15625 128.1875 C 150.15625 140.324219 140.367188 150.160156 128.292969 150.160156 L 21.859375 150.160156 C 9.789062 150.160156 0 140.324219 0 128.1875 L 0 21.972656 C 0 9.839844 9.789062 0 21.859375 0 L 128.292969 0 C 140.367188 0 150.15625 9.839844 150.15625 21.972656 Z M 150.15625 128.1875 "/>
<path style=" stroke:none;fill-rule:nonzero;fill:rgb(96.862745%,57.647059%,11.764706%);fill-opacity:1;" d="M 149.382812 127.640625 C 149.382812 139.652344 139.699219 149.390625 127.746094 149.390625 L 22.40625 149.390625 C 10.457031 149.390625 0.769531 139.652344 0.769531 127.640625 L 0.769531 22.519531 C 0.769531 10.507812 10.457031 0.769531 22.40625 0.769531 L 127.746094 0.769531 C 139.699219 0.769531 149.382812 10.507812 149.382812 22.519531 Z M 149.382812 127.640625 "/>
<path style=" stroke:none;fill-rule:nonzero;fill:rgb(100%,100%,100%);fill-opacity:1;" d="M 74.996094 22.441406 C 60.113281 22.441406 48.050781 34.570312 48.050781 49.527344 C 48.050781 64.484375 60.113281 76.613281 74.996094 76.613281 C 89.875 76.613281 101.941406 64.484375 101.941406 49.527344 C 101.941406 34.570312 89.875 22.441406 74.996094 22.441406 Z M 74.996094 60.722656 C 68.84375 60.722656 63.855469 55.710938 63.855469 49.527344 C 63.855469 43.34375 68.84375 38.332031 74.996094 38.332031 C 81.144531 38.332031 86.132812 43.34375 86.132812 49.527344 C 86.132812 55.710938 81.144531 60.722656 74.996094 60.722656 Z M 74.996094 60.722656 "/>
<path style=" stroke:none;fill-rule:nonzero;fill:rgb(100%,100%,100%);fill-opacity:1;" d="M 84.507812 98.164062 C 95.292969 95.953125 101.757812 90.820312 102.101562 90.542969 C 105.257812 88 105.765625 83.363281 103.234375 80.191406 C 100.703125 77.019531 96.089844 76.507812 92.933594 79.054688 C 92.867188 79.105469 85.972656 84.421875 74.628906 84.429688 C 63.285156 84.421875 56.246094 79.105469 56.175781 79.054688 C 53.019531 76.507812 48.410156 77.019531 45.878906 80.191406 C 43.347656 83.363281 43.855469 88 47.011719 90.542969 C 47.355469 90.824219 54.089844 96.09375 65.179688 98.25 L 49.722656 114.484375 C 46.914062 117.414062 47 122.074219 49.910156 124.898438 C 51.332031 126.277344 53.164062 126.960938 54.996094 126.960938 C 56.914062 126.960938 58.832031 126.207031 60.269531 124.707031 L 74.628906 109.335938 L 90.4375 124.808594 C 93.300781 127.683594 97.9375 127.675781 100.796875 124.800781 C 103.65625 121.921875 103.652344 117.257812 100.789062 114.386719 Z M 84.507812 98.164062 "/>
<path style=" stroke:none;fill-rule:nonzero;fill:rgb(100%,100%,100%);fill-opacity:1;" d="M 74.628906 84.429688 C 74.609375 84.429688 74.644531 84.429688 74.628906 84.433594 C 74.609375 84.429688 74.644531 84.429688 74.628906 84.429688 Z M 74.628906 84.429688 "/>
</g>
</svg>
