<?xml version="1.0" encoding="UTF-8"?>
<svg xmlns="http://www.w3.org/2000/svg" xmlns:xlink="http://www.w3.org/1999/xlink" width="150pt" height="150pt" viewBox="0 0 150 150" version="1.1">
<g id="surface1">
<path style=" stroke:none;fill-rule:evenodd;fill:rgb(31.764706%,50.588235%,72.156863%);fill-opacity:1;" d="M 52 0 L 98 0 C 140 0 150 10 150 52 L 150 98 C 150 140 140 150 98 150 L 52 150 C 10 150 0 140 0 98 L 0 52 C 0 10 10 0 52 0 Z M 52 0 "/>
<path style=" stroke:none;fill-rule:evenodd;fill:rgb(100%,100%,100%);fill-opacity:1;" d="M 122.839844 51.675781 C 123.535156 49.359375 122.839844 47.65625 119.53125 47.65625 L 108.59375 47.65625 C 105.8125 47.65625 104.53125 49.128906 103.835938 50.75 C 103.835938 50.75 98.273438 64.308594 90.394531 73.113281 C 87.84375 75.664062 86.6875 76.472656 85.296875 76.472656 C 84.601562 76.472656 83.59375 75.664062 83.59375 73.34375 L 83.59375 51.675781 C 83.59375 48.894531 82.785156 47.65625 80.46875 47.65625 L 63.28125 47.65625 C 61.542969 47.65625 60.5 48.945312 60.5 50.171875 C 60.5 52.808594 64.4375 53.414062 64.84375 60.832031 L 64.84375 76.9375 C 64.84375 80.46875 64.207031 81.109375 62.816406 81.109375 C 59.109375 81.109375 50.089844 67.492188 44.738281 51.910156 C 43.691406 48.878906 42.640625 47.65625 39.84375 47.65625 L 28.90625 47.65625 C 25.78125 47.65625 25.15625 49.128906 25.15625 50.75 C 25.15625 53.648438 28.863281 68.015625 42.421875 87.019531 C 51.460938 99.996094 64.195312 107.03125 75.78125 107.03125 C 82.734375 107.03125 83.59375 105.46875 83.59375 102.777344 L 83.59375 92.96875 C 83.59375 89.84375 84.253906 89.21875 86.453125 89.21875 C 88.078125 89.21875 90.855469 90.03125 97.347656 96.289062 C 104.761719 103.703125 105.984375 107.03125 110.15625 107.03125 L 121.09375 107.03125 C 124.21875 107.03125 125.78125 105.46875 124.878906 102.386719 C 123.894531 99.3125 120.351562 94.851562 115.65625 89.566406 C 113.105469 86.554688 109.28125 83.3125 108.121094 81.6875 C 106.5 79.601562 106.964844 78.675781 108.121094 76.820312 C 108.121094 76.820312 121.449219 58.050781 122.839844 51.675781 Z M 122.839844 51.675781 "/>
</g>
</svg>
